<svg width="17" height="17" viewBox="0 0 17 17" fill="none" xmlns="http://www.w3.org/2000/svg">
<path d="M1 16V14.1254C1 12.0625 4.37492 10.3746 8.5 10.3746C12.6251 10.3746 16 12.0625 16 14.1254V16H1ZM4.74922 4.75078C4.74907 4.0091 4.96886 3.28403 5.38078 2.66726C5.79271 2.05049 6.37828 1.56972 7.06345 1.28575C7.74861 1.00178 8.50259 0.927362 9.23005 1.07191C9.95751 1.21645 10.6258 1.57346 11.1503 2.0978C11.6749 2.62214 12.0322 3.29025 12.177 4.01765C12.3219 4.74505 12.2478 5.49907 11.9641 6.18435C11.6804 6.86963 11.1999 7.4554 10.5833 7.86758C9.96666 8.27976 9.24168 8.49985 8.5 8.5C8.00754 8.5001 7.51989 8.40321 7.06488 8.21485C6.60987 8.02648 6.19641 7.75035 5.84812 7.4022C5.49983 7.05405 5.22352 6.64071 5.03497 6.18578C4.84642 5.73085 4.74933 5.24323 4.74922 4.75078Z" stroke="url(#paint0_radial)" stroke-width="1.4"/>
<defs>
<radialGradient id="paint0_radial" cx="0" cy="0" r="1" gradientUnits="userSpaceOnUse" gradientTransform="translate(8.5 8.5) rotate(90) scale(7.5)">
<stop stop-color="#EFB889"/>
<stop offset="1" stop-color="#945A25"/>
</radialGradient>
</defs>
</svg>
