<svg width="20" height="19" viewBox="0 0 20 19" fill="none" xmlns="http://www.w3.org/2000/svg">
<path d="M2.92572 0.85H2.79304L2.77684 0.981691L0.860748 16.562C0.860741 16.5621 0.860733 16.5622 0.860726 16.5622C0.817534 16.9081 0.903337 17.2638 1.15063 17.5336C1.38992 17.7947 1.71947 17.95 2.07411 17.95H16.1257C16.4677 17.95 16.7876 17.8429 17.0627 17.6524L17.0638 17.6516C17.3659 17.4383 17.7628 17.3101 18.2029 17.2918L18.2035 17.2918L18.626 17.2726C18.9366 17.2716 19.2502 17.1385 19.4547 16.8885C19.6551 16.6437 19.7424 16.3341 19.7205 16.028L19.7209 16.028L19.7193 16.0167L17.4935 0.978038L17.4745 0.85H17.3451H2.92572ZM1.83497 16.7021L1.8351 16.7021L1.83587 16.6959L3.67762 1.84677H16.635L18.7433 16.1261C18.7417 16.1745 18.7287 16.2042 18.71 16.223C18.673 16.26 18.6318 16.2758 18.6031 16.2758V16.2757L18.5966 16.2759L18.1515 16.2953L18.1515 16.2953L18.1483 16.2955C17.5278 16.3355 16.9607 16.5156 16.4909 16.8407C16.3694 16.9092 16.2429 16.9532 16.1257 16.9532H2.07411C2.01179 16.9532 1.95092 16.9227 1.88985 16.8617C1.84235 16.8142 1.82453 16.7647 1.83497 16.7021Z" fill="url(#paint0_radial)" stroke="#D09466" stroke-width="0.3"/>
<path d="M12.1 3.65161C11.4999 3.65161 11.016 4.13548 11.016 4.73548C11.016 5.33548 11.4999 5.81936 12.1 5.81936C12.7 5.81936 13.1839 5.33548 13.1839 4.73548C13.1839 4.13548 12.7 3.65161 12.1 3.65161ZM12.1 5.08387C11.9064 5.08387 11.7322 4.92903 11.7322 4.71613C11.7322 4.52258 11.887 4.34839 12.1 4.34839C12.2935 4.34839 12.4677 4.50323 12.4677 4.71613C12.4677 4.92903 12.3129 5.08387 12.1 5.08387Z" fill="url(#paint1_radial)"/>
<path d="M6.69991 3.65161C6.09991 3.65161 5.61604 4.13548 5.61604 4.73548C5.61604 5.33548 6.09991 5.81935 6.69991 5.81935C7.29991 5.81935 7.78378 5.33548 7.78378 4.73548C7.78378 4.13548 7.29991 3.65161 6.69991 3.65161ZM6.69991 5.08387C6.50636 5.08387 6.33216 4.92903 6.33216 4.71613C6.33216 4.52258 6.487 4.34839 6.69991 4.34839C6.91281 4.34839 7.06765 4.50322 7.06765 4.71613C7.06765 4.92903 6.89346 5.08387 6.69991 5.08387Z" fill="url(#paint2_radial)"/>
<path d="M12.0999 4.73548H12.0806C11.887 4.73548 11.7128 4.89032 11.7128 5.10322C11.7128 5.16129 11.7322 5.2 11.7322 5.23871V7.07742C11.7322 8.37419 10.687 9.41935 9.39023 9.41935C8.09346 9.41935 7.0483 8.37419 7.0483 7.07742V5.08387C7.0483 4.89032 6.89346 4.71613 6.68055 4.71613C6.46765 4.71613 6.31281 4.87096 6.31281 5.08387V7.05806C6.31281 8.74193 7.68701 10.1161 9.37088 10.1161C11.0547 10.1161 12.4289 8.74193 12.4289 7.05806V5.08387C12.4677 4.89032 12.3128 4.73548 12.0999 4.73548Z" fill="url(#paint3_radial)"/>
<path d="M16.7838 17.3935H16.0289L16.1257 1.27094H16.8225L16.7838 17.3935Z" fill="url(#paint4_radial)"/>
<defs>
<radialGradient id="paint0_radial" cx="0" cy="0" r="1" gradientUnits="userSpaceOnUse" gradientTransform="translate(10.2869 9.4) rotate(90) scale(8.4 9.28689)">
<stop offset="0.868393" stop-color="#EDB586"/>
<stop offset="1" stop-color="#945A25"/>
</radialGradient>
<radialGradient id="paint1_radial" cx="0" cy="0" r="1" gradientUnits="userSpaceOnUse" gradientTransform="translate(12.1 4.73548) rotate(90) scale(1.08387)">
<stop offset="0.868393" stop-color="#EDB586"/>
<stop offset="1" stop-color="#945A25"/>
</radialGradient>
<radialGradient id="paint2_radial" cx="0" cy="0" r="1" gradientUnits="userSpaceOnUse" gradientTransform="translate(6.69991 4.73548) rotate(90) scale(1.08387)">
<stop offset="0.868393" stop-color="#EDB586"/>
<stop offset="1" stop-color="#945A25"/>
</radialGradient>
<radialGradient id="paint3_radial" cx="0" cy="0" r="1" gradientUnits="userSpaceOnUse" gradientTransform="translate(9.37385 7.41613) rotate(90) scale(2.7 3.06104)">
<stop offset="0.868393" stop-color="#EDB586"/>
<stop offset="1" stop-color="#945A25"/>
</radialGradient>
<radialGradient id="paint4_radial" cx="0" cy="0" r="1" gradientUnits="userSpaceOnUse" gradientTransform="translate(16.4257 9.33223) rotate(90) scale(8.06129 0.396774)">
<stop offset="0.868393" stop-color="#EDB586"/>
<stop offset="1" stop-color="#945A25"/>
</radialGradient>
</defs>
</svg>
