<svg width="24" height="24" viewBox="0 0 24 24" fill="none" xmlns="http://www.w3.org/2000/svg">
<path d="M22.6767 0H1.32404C0.593019 0 0 0.593019 0 1.32404V22.6767C0 23.4087 0.593019 24.0008 1.32404 24.0008H12.8184V14.7065H9.68931V11.0854H12.8184V8.41027C12.8184 5.31117 14.7125 3.62511 17.4776 3.62511C18.8026 3.62511 19.9416 3.72212 20.2736 3.76612V7.00622H18.3526C16.8525 7.00622 16.5605 7.72725 16.5605 8.77728V11.0884H20.1446L19.6796 14.7185H16.5605V24.0008H22.6757C23.4087 24.0008 24.0008 23.4087 24.0008 22.6767V1.32404C24.0008 0.593019 23.4087 0 22.6767 0Z" fill="#D09466"/>
</svg>
