<svg width="29" height="19" viewBox="0 0 29 19" fill="none" xmlns="http://www.w3.org/2000/svg">
<path d="M25.8835 8.04259C25.3639 8.05119 24.863 8.10219 24.4748 8.15467C24.4803 6.1018 24.051 4.28829 23.6032 3.45988L23.5992 3.45245L23.5945 3.44538C23.4927 3.28996 23.3208 3.15426 23.1144 3.15038C20.7344 2.9602 19.2412 3.86037 18.4561 4.57252C17.5683 2.81397 16.3489 1.32385 14.9682 0.400522C14.8676 0.332488 14.7457 0.305005 14.6352 0.305005C14.5244 0.305005 14.4023 0.332589 14.3016 0.400897C14.1622 0.495457 12.3475 1.87467 10.8992 4.61607C10.146 3.92101 8.64493 2.91962 6.1563 3.10944C5.94977 3.11314 5.77768 3.24892 5.67577 3.40444L5.67114 3.41151L5.66712 3.41895C5.22059 4.24497 4.7529 6.05632 4.79143 8.11305C4.40668 8.06084 3.91534 8.01021 3.40191 8.00165C2.77908 7.99126 2.10761 8.04232 1.55158 8.23815L1.52717 8.24674L1.50575 8.26127C1.42187 8.31817 1.34243 8.39983 1.28296 8.49395C1.22377 8.58763 1.17659 8.70624 1.17659 8.83618C1.17659 8.83953 1.17656 8.84431 1.17651 8.85049C1.17439 9.15336 1.14862 12.8198 3.89073 15.5687L3.89118 15.5691C5.87058 17.5411 8.7042 18.5341 12.3617 18.5341C12.8544 18.5341 13.3397 18.5374 13.8172 18.5405C15.9009 18.5544 17.8367 18.5672 19.6036 18.3068C21.786 17.9852 23.7311 17.2449 25.4191 15.5694L25.4198 15.5687C28.1619 12.8198 28.1362 9.15337 28.134 8.85049C28.134 8.84431 28.134 8.83953 28.134 8.83618C28.134 8.58914 27.9606 8.34557 27.7125 8.27678C27.1762 8.08246 26.507 8.03227 25.8835 8.04259ZM4.7383 14.7141L4.73694 14.7127C2.81728 12.7972 2.45903 10.3091 2.39079 9.28617C2.7967 9.21926 3.27782 9.21333 3.73595 9.23553C4.1696 9.25654 4.57299 9.30217 4.85628 9.3402C5.22447 12.5304 6.89658 15.3572 9.40034 17.0366C7.48064 16.6636 5.90644 15.9026 4.7383 14.7141ZM19.0338 5.68382C19.4815 5.21053 20.6265 4.21655 22.6874 4.28169C23.6209 6.59889 23.5505 9.32742 22.6224 11.6955C21.7828 13.8377 20.2473 15.6712 18.1368 16.639C20.6342 13.6401 20.5377 9.3168 19.0338 5.68382ZM14.6641 1.64274C16.6164 3.15548 17.6387 5.52652 17.7959 5.89096C17.8029 5.90721 17.8082 5.91947 17.8117 5.92748L17.8117 5.92749C19.5187 9.84527 18.9622 13.5162 17.534 15.5744C16.8196 16.6039 15.9014 17.213 14.953 17.2833C14.0115 17.3531 12.9845 16.8957 12.0373 15.6738C10.4552 13.6068 10.1914 10.8902 10.806 8.26773C11.4075 5.70161 12.8448 3.25322 14.6641 1.64274ZM6.74754 11.8568C5.77048 9.45811 5.67093 6.65968 6.62317 4.28224C8.86944 4.22004 10.0258 5.35057 10.3614 5.7559C8.48853 10.2851 9.29131 14.4002 11.3833 16.7464C9.22321 15.8503 7.63052 14.0245 6.74754 11.8568ZM24.5723 14.7141C23.405 15.9017 21.8618 16.6622 19.9289 17.0355C22.4245 15.3817 24.0889 12.5551 24.4549 9.33689C25.1386 9.23253 26.1749 9.1481 26.9196 9.28297C26.848 10.3022 26.458 12.7955 24.5723 14.7141Z" fill="url(#paint0_linear)" stroke="url(#paint1_linear)" stroke-width="0.4"/>
<defs>
<linearGradient id="paint0_linear" x1="27.9342" y1="18.3466" x2="1.37634" y2="18.3466" gradientUnits="userSpaceOnUse">
<stop stop-color="#905725"/>
<stop offset="0.42045" stop-color="#ECB68B"/>
<stop offset="0.555875" stop-color="var(--zmGold)"/>
<stop offset="1" stop-color="#905725"/>
</linearGradient>
<linearGradient id="paint1_linear" x1="27.9342" y1="18.3466" x2="1.37634" y2="18.3466" gradientUnits="userSpaceOnUse">
<stop stop-color="#905725"/>
<stop offset="0.42045" stop-color="#ECB68B"/>
<stop offset="0.555875" stop-color="var(--zmGold)"/>
<stop offset="1" stop-color="#905725"/>
</linearGradient>
</defs>
</svg>
