<svg width="24" height="24" viewBox="0 0 24 24" fill="none" xmlns="http://www.w3.org/2000/svg">
<path d="M12.0004 0C8.74028 0 8.33326 0.0150005 7.05322 0.0720023C5.77518 0.132004 4.90516 0.333011 4.14013 0.63002C3.35111 0.93603 2.68108 1.34704 2.01406 2.01406C1.34704 2.68108 0.93503 3.35011 0.63002 4.14013C0.333011 4.90516 0.131004 5.77518 0.0720023 7.05322C0.0120004 8.33326 0 8.74028 0 12.0004C0 15.2605 0.0150005 15.6675 0.0720023 16.9475C0.132004 18.2246 0.333011 19.0956 0.63002 19.8606C0.93603 20.6487 1.34704 21.3197 2.01406 21.9867C2.68108 22.6527 3.35011 23.0657 4.14013 23.3707C4.90616 23.6668 5.77618 23.8698 7.05322 23.9288C8.33326 23.9888 8.74028 24.0008 12.0004 24.0008C15.2605 24.0008 15.6675 23.9858 16.9475 23.9288C18.2246 23.8688 19.0956 23.6668 19.8606 23.3707C20.6487 23.0647 21.3197 22.6527 21.9867 21.9867C22.6527 21.3197 23.0657 20.6517 23.3707 19.8606C23.6668 19.0956 23.8698 18.2246 23.9288 16.9475C23.9888 15.6675 24.0008 15.2605 24.0008 12.0004C24.0008 8.74028 23.9858 8.33326 23.9288 7.05322C23.8688 5.77618 23.6668 4.90416 23.3707 4.14013C23.0647 3.35111 22.6527 2.68108 21.9867 2.01406C21.3197 1.34704 20.6517 0.93503 19.8606 0.63002C19.0956 0.333011 18.2246 0.131004 16.9475 0.0720023C15.6675 0.0120004 15.2605 0 12.0004 0ZM12.0004 2.16007C15.2035 2.16007 15.5855 2.17607 16.8505 2.23107C18.0206 2.28607 18.6556 2.48008 19.0776 2.64608C19.6396 2.86309 20.0376 3.1231 20.4596 3.54211C20.8787 3.96213 21.1387 4.36114 21.3557 4.92316C21.5197 5.34517 21.7157 5.98019 21.7687 7.15023C21.8257 8.41627 21.8387 8.79628 21.8387 12.0004C21.8387 15.2045 21.8237 15.5855 21.7647 16.8505C21.7037 18.0206 21.5087 18.6556 21.3437 19.0776C21.1197 19.6396 20.8647 20.0376 20.4446 20.4596C20.0256 20.8787 19.6206 21.1387 19.0646 21.3557C18.6446 21.5197 17.9996 21.7157 16.8295 21.7687C15.5555 21.8257 15.1805 21.8387 11.9704 21.8387C8.75928 21.8387 8.38427 21.8237 7.11123 21.7647C5.94019 21.7037 5.29517 21.5087 4.87515 21.3437C4.30614 21.1197 3.91512 20.8647 3.49611 20.4446C3.0751 20.0256 2.80609 19.6206 2.59608 19.0646C2.43108 18.6446 2.23707 17.9996 2.17607 16.8295C2.13107 15.5695 2.11507 15.1805 2.11507 11.9854C2.11507 8.78928 2.13107 8.39927 2.17607 7.12423C2.23707 5.95419 2.43108 5.31017 2.59608 4.89015C2.80609 4.32014 3.0751 3.93012 3.49611 3.50911C3.91512 3.0901 4.30614 2.82009 4.87515 2.61108C5.29517 2.44508 5.92619 2.25007 7.09623 2.19007C8.37127 2.14507 8.74628 2.13007 11.9554 2.13007L12.0004 2.16007ZM12.0004 5.83818C8.59527 5.83818 5.83818 8.59827 5.83818 12.0004C5.83818 15.4055 8.59827 18.1626 12.0004 18.1626C15.4055 18.1626 18.1626 15.4025 18.1626 12.0004C18.1626 8.59527 15.4025 5.83818 12.0004 5.83818ZM12.0004 16.0005C9.79031 16.0005 8.00025 14.2105 8.00025 12.0004C8.00025 9.79031 9.79031 8.00025 12.0004 8.00025C14.2105 8.00025 16.0005 9.79031 16.0005 12.0004C16.0005 14.2105 14.2105 16.0005 12.0004 16.0005ZM19.8466 5.59518C19.8466 6.3902 19.2006 7.03522 18.4066 7.03522C17.6116 7.03522 16.9665 6.3892 16.9665 5.59518C16.9665 4.80115 17.6126 4.15613 18.4066 4.15613C19.1996 4.15513 19.8466 4.80115 19.8466 5.59518Z" fill="#D09466"/>
</svg>
