<svg width="68" height="66" viewBox="0 0 68 66" fill="none" xmlns="http://www.w3.org/2000/svg">
<path d="M14.0171 33.9009C13.1698 35.8744 13.3816 36.9316 13.2404 38.0592C13.0992 38.2002 13.0992 38.2707 13.0285 38.2707C12.8167 38.2002 12.1812 36.7201 12.4637 35.1696C12.5343 34.9581 12.5343 33.1256 14.7232 30.5179C15.7824 29.2492 17.0534 28.4739 18.5362 28.1215C19.1717 27.9806 19.0305 28.8968 18.3244 29.1083C16.7709 29.6016 14.7232 32.2799 14.0171 33.9009ZM63.7978 40.9489C62.4562 46.9397 59.3494 52.6486 54.4772 57.1593C41.626 69.2114 21.3606 68.5066 9.28616 55.6793C-2.71771 42.8519 -2.0116 22.6241 10.8396 10.6425C15.4293 6.34321 20.8664 3.73544 26.5858 2.60776C26.6565 2.60776 27.1507 2.53728 27.5038 2.74872C27.9275 2.96016 28.2099 3.45352 27.5744 3.94688C26.4446 4.79265 24.4675 6.62513 23.4084 7.75281C21.29 9.93769 19.4541 11.8407 18.0419 15.2237C17.124 17.4791 17.124 19.382 17.1946 20.0868C17.3358 21.3555 18.0419 23.047 19.8778 25.2319C20.6545 26.1481 21.0076 26.571 21.6431 27.6282C22.0667 28.2625 22.561 30.095 23.1259 30.7293C24.1145 31.2227 25.9504 31.1522 26.9389 31.4341C28.3511 31.857 28.8454 32.3504 30.2576 32.7028C31.2462 32.9847 32.3759 32.7732 33.1527 33.5485C34 34.3238 34 34.9581 33.7882 35.7334C33.6469 36.1563 33.5763 36.3677 32.7996 37.002C32.4466 37.284 32.0935 37.9183 31.7405 38.6936C31.8111 38.6231 31.6698 38.2707 31.8111 38.2707C31.8111 38.2707 32.0935 38.9755 32.3053 39.3984C32.4466 39.6803 33.0821 39.8917 33.5057 39.7508C33.7176 39.6803 33.8588 39.6803 34.0706 39.6098C34.3531 39.4688 34.9179 41.3718 34.9179 41.4423C34.9179 41.5128 34.7767 41.9356 34.7767 42.1471C34.7767 42.1471 35.1298 42.0061 35.2004 42.0061C35.6947 41.8652 35.9771 42.1471 36.4008 42.4995C36.542 42.6404 36.9657 43.3452 36.8951 43.8386C36.6832 44.4025 36.4008 44.8253 36.1183 45.1777C36.2596 45.3187 36.6126 45.7416 36.9657 45.812C37.0363 45.812 38.5191 45.3892 39.1546 45.6006C39.5783 45.7416 40.7787 45.953 41.8378 48.1379C42.4733 49.477 44.3092 50.6752 46.6394 50.3933C48.6165 50.1113 49.605 49.8999 51.3703 48.9132C53.4886 47.715 57.5841 44.9663 59.9142 42.2176C60.5497 41.5128 61.6795 40.1032 63.5154 40.2441C63.6566 40.1032 63.8685 40.526 63.7978 40.9489ZM5.75561 20.0163L7.80333 18.1134C8.9331 15.7875 10.4159 13.5322 12.2518 11.5587C12.1812 11.6292 12.04 11.6997 11.9694 11.8407C9.35677 14.237 7.30905 17.0562 5.75561 20.0163ZM3.00178 27.8396L4.76706 26.2186C5.0495 25.0204 5.33194 23.8223 5.75561 22.6241L3.91972 24.3156C3.56667 25.5138 3.28422 26.712 3.00178 27.8396ZM2.43689 33.6895L4.13156 32.1389C4.13156 31.2227 4.20217 30.3064 4.27278 29.3197L2.57811 30.8703C2.43689 31.857 2.43689 32.7732 2.43689 33.6895ZM2.78995 38.6231L4.414 37.0725C4.34339 36.2972 4.20217 35.4515 4.20217 34.6762L3.63728 35.1696L2.5075 36.2268C2.57811 37.002 2.64873 37.8478 2.78995 38.6231ZM3.7785 42.9224L5.40255 41.3718C5.19072 40.667 4.97889 39.9622 4.83767 39.2574L3.21361 40.808C3.35484 41.5128 3.56667 42.2176 3.7785 42.9224ZM5.33194 46.7988L6.956 45.3187C6.67355 44.6844 6.39111 44.05 6.17927 43.4157L4.55522 44.9663C4.76706 45.5301 4.97889 46.1645 5.33194 46.7988ZM7.23844 50.2523L8.86249 48.7722C8.50944 48.2084 8.15638 47.6445 7.87394 47.0807L6.24989 48.5608C6.53233 49.1246 6.88539 49.6885 7.23844 50.2523ZM9.49799 53.3534L11.0514 51.8733C10.6278 51.38 10.2747 50.8866 9.85105 50.3228L8.2976 51.8029C8.72127 52.3667 9.07433 52.8601 9.49799 53.3534ZM12.1812 56.1021L13.664 54.6925C13.2404 54.2697 12.8167 53.8468 12.393 53.4239C12.3224 53.3534 12.3224 53.3534 12.2518 53.2829L10.6984 54.6925C11.2633 55.2564 11.6869 55.6793 12.1812 56.1021ZM15.2175 58.569L16.7003 57.2298C16.206 56.8774 15.6411 56.4545 15.1469 56.0317L13.664 57.4413C14.1583 57.7937 14.6526 58.1461 15.2175 58.569ZM18.6068 60.6129L20.019 59.3442C19.4541 58.9918 18.8893 58.7099 18.3244 58.287L16.9121 59.6261C17.4064 59.9785 18.0419 60.3309 18.6068 60.6129ZM22.4198 62.3044L23.6908 61.1062C23.0553 60.8243 22.4198 60.5424 21.7843 60.2605L20.4427 61.5291C21.0782 61.811 21.7843 62.0225 22.4198 62.3044ZM26.7977 63.5026L27.9275 62.4454C27.2214 62.3044 26.4446 62.093 25.7385 61.8815L24.5381 62.9387C25.2442 63.1502 26.021 63.3616 26.7977 63.5026ZM32.7996 63.1502C31.9523 63.0797 31.105 63.0092 30.2576 62.8682L29.9752 63.1502L29.2691 63.7845C30.1164 63.8549 31.0343 63.9254 31.8817 63.9959L32.7996 63.1502ZM38.5897 62.9387C37.6012 63.0797 36.542 63.1502 35.5534 63.1502L34.7061 63.9959C35.7653 63.9254 36.8951 63.7845 37.9542 63.6435L38.5897 62.9387ZM45.9333 61.0357C44.6623 61.5291 43.3913 61.952 42.1203 62.3044L41.626 62.7273C43.1088 62.2339 44.521 61.6701 45.9333 61.0357ZM61.5383 41.9356C61.6089 41.8652 61.6795 41.7947 61.3265 41.6537C60.9734 41.5128 59.2081 43.5567 58.2902 44.5434C57.3722 45.4596 54.9009 47.715 52.7119 49.1246C51.4409 49.9704 49.6756 51.1685 46.71 51.38C43.8855 51.5209 41.6966 50.4637 40.6374 48.3493C40.1432 47.2921 39.5783 46.3054 38.3779 46.1645C38.3779 46.1645 37.1775 46.3759 36.542 46.3054C36.2596 46.3054 36.1183 46.0235 35.9771 45.953C35.7653 45.7416 35.6241 45.5301 35.6241 45.3892C34.7061 46.2349 33.7176 46.3054 33.2233 46.3759C32.5172 46.5169 32.3053 46.4464 32.3053 46.094C32.3053 46.094 32.7996 46.094 32.9408 46.0235C35.271 45.2482 36.7538 43.1338 35.1298 42.288C35.1298 42.288 34.9886 42.1471 34.7767 42.2176C34.5649 42.3585 34.5649 42.288 34.3531 42.429C34.1412 42.4995 34 42.57 33.5057 42.9928C33.0821 43.3452 32.5172 43.8386 32.2347 44.332C31.9523 44.8253 31.8817 44.8958 31.6698 45.1777C31.5286 45.3187 31.5286 45.3187 31.1756 45.5301C30.8225 45.6711 30.2576 45.8121 30.0458 46.094C30.0458 46.094 29.5515 45.953 29.2691 45.7416C29.1985 45.6711 28.9866 45.7416 28.9866 45.1777C28.9866 45.0368 29.9752 45.3892 30.5401 45.1072C30.5401 45.1072 31.2462 44.6844 31.2462 44.6139C31.6698 43.4157 32.0935 42.7814 33.0821 41.9356C33.1527 41.8652 33.6469 41.5128 33.7176 41.3718C33.7882 41.2308 33.6469 40.808 33.6469 40.4556C33.1527 40.667 32.729 40.667 32.4466 40.526C31.6698 40.1032 31.7405 40.1032 31.3874 39.3279C31.3168 39.1869 31.3168 39.1164 31.3168 38.9755C30.8931 39.7508 30.5401 40.4556 30.1164 40.5965C27.9981 41.3718 27.292 39.5393 27.292 39.3984C27.292 39.2574 27.292 39.1869 27.292 39.046C27.292 38.9755 27.292 38.905 27.292 38.764C27.3626 37.9888 27.8569 37.143 28.6336 37.0725H28.7748C28.7748 37.0725 27.5744 37.8478 27.7862 38.8345C27.7862 38.905 27.7862 38.9755 27.7862 39.046C27.7862 39.046 27.7862 39.1164 27.8568 39.1869C27.9981 39.5393 28.8454 40.2441 29.9046 39.5393C30.6107 39.1164 31.0343 37.7773 31.3168 37.284C31.5992 36.7906 32.0229 36.3677 32.4466 36.0153C33.2939 35.3105 32.7996 34.7467 32.6584 34.2533C32.5172 33.76 31.8111 33.76 31.3874 33.619C30.8225 33.478 30.187 33.3371 29.6221 33.1256C28.1393 32.7028 27.8568 32.4913 26.374 32.0684C25.3149 31.716 23.6908 31.998 22.7729 31.4341C22.3492 31.2227 22.0667 30.9408 21.7843 30.5179C21.4312 29.6721 20.8664 27.9806 20.2309 27.4167C19.5954 26.8529 18.9599 26.0071 18.3244 25.4433C17.6183 24.809 16.0648 22.2012 15.9236 20.6507C15.6411 17.761 16.4885 14.5189 18.1125 12.0521C19.3835 10.1491 19.8072 9.37385 21.9255 7.04801C22.2786 6.62513 22.9847 5.99081 23.832 5.21553C20.3015 6.34321 16.9121 8.24617 14.0877 10.9244C3.143 21.2145 3.21361 39.1164 14.2289 50.8866C25.2442 62.6568 43.1794 63.9254 54.1948 53.6353C57.9371 50.3933 60.3379 46.3054 61.5383 41.9356ZM48.4753 14.237C48.6165 14.096 48.6871 13.9551 48.6871 13.7436L47.9104 9.16241L51.2291 5.92033C51.3703 5.77937 51.4409 5.63841 51.3703 5.42697C51.2997 5.21553 51.1585 5.14505 50.9466 5.07457L46.3569 4.44025L44.3092 0.28192C44.2386 0.14096 44.0268 0 43.8855 0C43.6737 0 43.5325 0.0704801 43.4619 0.28192L41.3435 4.44025L36.7538 5.07457C36.542 5.07457 36.4008 5.21553 36.4008 5.42697C36.3302 5.56793 36.4008 5.77937 36.542 5.92033L39.8607 9.16241L39.084 13.7436C39.084 13.9551 39.1546 14.096 39.2958 14.237C39.437 14.3779 39.6489 14.3779 39.7901 14.3075L43.8855 12.1226L47.981 14.3075C48.0516 14.3075 48.1222 14.3075 48.1928 14.3075C48.334 14.3075 48.4047 14.3075 48.4753 14.237ZM41.7672 5.35649C41.9084 5.35649 42.0497 5.21553 42.1203 5.07457L43.8855 1.55056L45.6508 5.07457C45.7214 5.21553 45.8627 5.28601 46.0039 5.35649L49.8875 5.92033L47.063 8.66905C46.9218 8.81001 46.9218 8.95097 46.9218 9.09193L47.5573 12.9683L44.0974 11.1359C43.9562 11.0654 43.8149 11.0654 43.6737 11.1359L40.2138 12.9683L40.8493 9.09193C40.8493 8.95097 40.8493 8.81001 40.708 8.66905L37.8836 5.92033L41.7672 5.35649ZM50.876 39.6803C51.0173 39.6098 51.1585 39.4688 51.2291 39.3279L51.9352 35.522L55.4657 33.9009C55.607 33.8304 55.7482 33.6895 55.7482 33.478C55.7482 33.2666 55.6776 33.1256 55.4657 33.0552L52.0764 31.2227L51.6528 27.3463C51.6528 27.1348 51.5115 26.9939 51.3703 26.9234C51.2291 26.8529 51.0173 26.9234 50.876 27.0643L48.0516 29.7426L44.2386 28.9673C44.0268 28.8968 43.8855 28.9673 43.7443 29.1083C43.6031 29.2492 43.6031 29.4607 43.6737 29.6016L45.3684 33.0552L43.4619 36.4382C43.3913 36.5792 43.3913 36.7906 43.4619 36.9316C43.5325 37.0725 43.7443 37.143 43.9562 37.143L47.7692 36.5792L50.3818 39.3984C50.4524 39.4688 50.5936 39.5393 50.7348 39.5393C50.8054 39.6803 50.8054 39.6803 50.876 39.6803ZM47.9104 35.6629L44.8035 36.0858L46.3569 33.3371C46.4275 33.1961 46.4275 33.0552 46.3569 32.9142L44.9447 30.095L48.0516 30.7293C48.1928 30.7293 48.334 30.7293 48.4753 30.5884L50.7348 28.4035L51.0879 31.5046C51.0879 31.6456 51.2291 31.7865 51.3703 31.857L54.1948 33.3371L51.2997 34.6762C51.1585 34.7467 51.0879 34.8876 51.0173 35.0286L50.4524 38.1297L48.334 35.8039C48.1928 35.7334 48.1222 35.6629 47.9104 35.6629ZM59.9849 20.3687L62.1032 18.6067L64.7158 19.3115C64.857 19.382 64.9982 19.3115 65.0688 19.1706C65.1395 19.0296 65.2101 18.8887 65.1395 18.7477L64.0803 16.2104L65.5631 13.9551C65.6337 13.8141 65.6337 13.6731 65.5631 13.5322C65.4925 13.3912 65.3513 13.3207 65.2101 13.3207L62.5269 13.6027L60.8322 11.4883C60.7616 11.3473 60.6204 11.3473 60.4791 11.3473C60.3379 11.3473 60.1967 11.4883 60.1967 11.6292L59.4906 14.3075L56.9486 15.2942C56.8074 15.3647 56.7367 15.4351 56.7367 15.6466C56.7367 15.7875 56.8074 15.9285 56.9486 15.999L59.2787 17.4086L59.42 20.1573C59.42 20.2983 59.4906 20.4392 59.6318 20.5097C59.7024 20.5097 59.7024 20.5097 59.773 20.5097C59.8436 20.4392 59.9142 20.4392 59.9849 20.3687ZM59.9849 14.9418C60.1261 14.8713 60.1967 14.8008 60.1967 14.6599L60.691 12.5455L62.0326 14.237C62.1032 14.3075 62.2444 14.3779 62.3856 14.3779L64.5746 14.237L63.3742 16.0695C63.3036 16.1399 63.3036 16.2809 63.3742 16.4219L64.2215 18.3953L62.1032 17.8315C61.962 17.8315 61.8207 17.8315 61.7501 17.9019L60.1261 19.3115L59.9849 17.1267C59.9849 16.9857 59.9142 16.9152 59.773 16.8447L57.9371 15.7171L59.9849 14.9418ZM28.8454 27.2053L30.8225 24.4566L34.2118 24.5271C34.3531 24.5271 34.4943 24.4566 34.5649 24.3156C34.6355 24.1747 34.6355 24.0337 34.5649 23.8927L32.5878 21.144L33.7176 17.9724C33.7882 17.8315 33.7176 17.6905 33.6469 17.5495C33.5763 17.4791 33.3645 17.4086 33.2233 17.4791L30.0458 18.5363L27.3626 16.4923C27.2213 16.4219 27.0801 16.4219 26.9389 16.4219C26.7977 16.4923 26.7271 16.6333 26.7271 16.7743V20.1573L23.9732 22.0603C23.832 22.1307 23.7614 22.2717 23.832 22.4127C23.832 22.5536 23.9732 22.6946 24.1145 22.6946L27.292 23.7518L28.2805 26.9939C28.3511 27.1348 28.4217 27.2053 28.563 27.2758H28.6336C28.6336 27.3463 28.7748 27.2758 28.8454 27.2053ZM27.292 20.7211C27.3626 20.6507 27.4332 20.5097 27.4332 20.4392V17.62L29.6221 19.3115C29.6927 19.382 29.834 19.382 29.9752 19.382L32.6584 18.5363L31.7405 21.144C31.6698 21.285 31.7405 21.4259 31.8111 21.4964L33.4351 23.7518L30.6107 23.6813C30.4695 23.6813 30.3988 23.7518 30.2576 23.8223L28.6336 26.0776L27.8568 23.4699C27.7862 23.3289 27.7156 23.2584 27.5744 23.1879L24.8912 22.3422L27.292 20.7211ZM62.9505 32.9847L64.5746 31.716L66.4811 32.3504C66.5517 32.3504 66.6223 32.3504 66.6929 32.2799C66.7635 32.2094 66.7635 32.1389 66.7635 32.0684L66.0574 30.1655L67.2578 28.5444C67.3284 28.474 67.3284 28.4035 67.2578 28.333C67.2578 28.2625 67.1872 28.192 67.1166 28.2625L65.0688 28.333L63.8685 26.7119C63.7978 26.6415 63.7272 26.6415 63.6566 26.6415C63.586 26.6415 63.5154 26.712 63.5154 26.7824L62.9505 28.6854L61.044 29.3197C60.9734 29.3197 60.9028 29.3902 60.9028 29.4607C60.9028 29.5312 60.9028 29.6016 60.9734 29.6721L62.6681 30.7998V32.8437C62.6681 32.9142 62.7387 32.9847 62.8093 32.9847H62.8799C62.8799 33.0552 62.9505 32.9847 62.9505 32.9847ZM63.1623 29.0378C63.233 29.0378 63.3036 28.9673 63.3036 28.8968L63.7978 27.2053L64.857 28.6149C64.9276 28.6854 64.9276 28.6854 64.9982 28.6854L66.7635 28.6149L65.7043 30.0245C65.6337 30.095 65.6337 30.1655 65.7043 30.1655L66.2692 31.7865L64.5746 31.2227C64.504 31.2227 64.4333 31.2227 64.4333 31.2227L63.0211 32.2799V30.5179C63.0211 30.4474 63.0211 30.3769 62.9505 30.3769L61.5383 29.3902L63.1623 29.0378ZM43.6031 25.1614C43.6737 25.1614 43.7443 25.0909 43.7443 25.0204L44.3092 23.047L46.2157 22.4127C46.2863 22.4127 46.3569 22.3422 46.3569 22.2717C46.3569 22.2012 46.3569 22.1307 46.2863 22.0603L44.5917 21.0031V18.9591C44.5917 18.8887 44.521 18.8182 44.4504 18.8182C44.3798 18.8182 44.3092 18.8182 44.2386 18.8182L42.6145 20.0868L40.6374 19.4525C40.5668 19.4525 40.4962 19.4525 40.4256 19.523C40.355 19.5935 40.355 19.6639 40.355 19.7344L41.0611 21.6374L39.8607 23.2584C39.7901 23.3289 39.7901 23.3994 39.8607 23.4699C39.8607 23.5403 40.0019 23.5403 40.0019 23.5403L42.0497 23.4699L43.25 25.0909C43.4619 25.1614 43.5325 25.1614 43.6031 25.1614ZM42.3321 23.1175L40.5668 23.1879L41.5554 21.7783C41.626 21.7079 41.626 21.6374 41.5554 21.5669L40.9905 19.9459L42.6852 20.4392C42.7558 20.4392 42.8264 20.4392 42.8264 20.4392L44.2386 19.382V21.144C44.2386 21.2145 44.2386 21.285 44.3092 21.285L45.792 22.2717L44.0974 22.7651C44.0268 22.7651 44.0268 22.8355 43.9562 22.906L43.4619 24.5975L42.4027 23.1879C42.4027 23.1175 42.3321 23.1175 42.3321 23.1175ZM20.8664 34.1124C21.29 36.4382 18.9599 37.8478 16.9121 38.0592C16.2766 38.1297 16.3473 38.4116 16.9121 38.5526C19.0305 39.046 22.0667 38.2002 21.5725 33.9714C21.5019 33.2666 20.7957 33.478 20.8664 34.1124Z" fill="var(--zmGold)"/>
</svg>
