<svg width="25" height="28" viewBox="0 0 25 28" fill="none" xmlns="http://www.w3.org/2000/svg">
<path d="M24.9976 24.1997C24.6275 24.1799 24.315 24.179 24.0063 24.1441C22.5243 23.9767 21.1905 23.4046 19.9454 22.6115C19.1682 22.1165 18.4093 21.5929 17.6399 21.0853C17.0011 20.6638 16.3443 20.2734 15.6391 19.9704C14.4391 19.4549 13.1943 19.2376 11.8846 19.3301C10.647 19.4175 9.49568 19.7663 8.43244 20.3852C7.73029 20.7939 7.06622 21.2676 6.38222 21.7077C5.62414 22.1954 4.87952 22.7069 4.09891 23.1558C3.1204 23.7184 2.04839 24.0302 0.92702 24.1605C0.693835 24.1876 0.456761 24.1787 0.22168 24.1911C0.0728357 24.199 0.00225185 24.1326 0.00235149 23.9854C0.00265117 23.7501 -0.00422779 23.5144 0.00424617 23.2793C0.0114241 23.081 0.056386 23.0366 0.249694 23.0302C1.73156 22.9801 3.06687 22.4817 4.29989 21.689C4.94292 21.2754 5.56811 20.8343 6.19888 20.4017C6.87032 19.9411 7.55034 19.4956 8.27911 19.128C9.62509 18.449 11.0485 18.126 12.5575 18.1349C14.2597 18.1451 15.8226 18.6263 17.2742 19.4847C17.9654 19.8936 18.6254 20.3551 19.3036 20.7865C19.9733 21.2125 20.6365 21.6508 21.3238 22.0467C22.1276 22.5097 22.9989 22.8069 23.9177 22.9493C24.1882 22.9912 24.4632 23.0052 24.7363 23.0281C24.9603 23.0467 24.9894 23.0654 24.9957 23.2914C25.0036 23.5737 24.9976 23.8564 24.9976 24.1997Z" fill="url(#paint0_radial)"/>
<path d="M16.6973 5.76376C12.1981 9.90069 10.5876 18.6378 10.5876 18.6378H14.0337C12.3357 11.779 16.9748 6.22993 16.9748 6.22993C17.2245 5.96913 16.9387 5.54173 16.6973 5.76376Z" fill="url(#paint1_radial)"/>
<path d="M8.32033 5.07317C8.32033 5.07317 13.4515 10.4912 13.4515 18.9015H10.3609C10.3609 18.9015 12.5723 13.0034 7.6444 5.6853C7.27493 5.13668 7.90819 4.59364 8.32033 5.07317Z" fill="url(#paint2_radial)"/>
<path d="M18.6311 14.019C18.5881 14.0343 18.5596 14.0512 18.5297 14.0541C18.0116 14.1021 17.4949 14.1149 16.9836 13.9938C16.1086 13.7864 15.5818 13.2115 15.4694 12.3404C15.4654 12.3095 15.4618 12.2785 15.4577 12.2476C15.4175 11.9454 15.43 11.9222 15.7186 11.8244C16.1743 11.6697 16.6309 11.6368 17.0865 11.8262C17.3634 11.9414 17.5889 12.1232 17.7817 12.3444C18.1866 12.809 18.4317 13.3553 18.6236 13.9277C18.6311 13.9504 18.6279 13.9765 18.6311 14.019Z" fill="url(#paint3_radial)"/>
<path d="M24.9976 24.1997C24.6275 24.1799 24.315 24.179 24.0063 24.1441C22.5243 23.9767 21.1905 23.4046 19.9454 22.6115C19.1682 22.1165 18.4093 21.5929 17.6399 21.0853C17.0011 20.6638 16.3443 20.2734 15.6391 19.9704C14.4391 19.4549 13.1943 19.2376 11.8846 19.3301C10.647 19.4175 9.49568 19.7663 8.43244 20.3852C7.73029 20.7939 7.06622 21.2676 6.38222 21.7077C5.62414 22.1954 4.87952 22.7069 4.09891 23.1558C3.1204 23.7184 2.04839 24.0302 0.92702 24.1605C0.693835 24.1876 0.456761 24.1787 0.22168 24.1911C0.0728357 24.199 0.00225185 24.1326 0.00235149 23.9854C0.00265117 23.7501 -0.00422779 23.5144 0.00424617 23.2793C0.0114241 23.081 0.056386 23.0366 0.249694 23.0302C1.73156 22.9801 3.06687 22.4817 4.29989 21.689C4.94292 21.2754 5.56811 20.8343 6.19888 20.4017C6.87032 19.9411 7.55034 19.4956 8.27911 19.128C9.62509 18.449 11.0485 18.126 12.5575 18.1349C14.2597 18.1451 15.8226 18.6263 17.2742 19.4847C17.9654 19.8936 18.6254 20.3551 19.3036 20.7865C19.9733 21.2125 20.6365 21.6508 21.3238 22.0467C22.1276 22.5097 22.9989 22.8069 23.9177 22.9493C24.1882 22.9912 24.4632 23.0052 24.7363 23.0281C24.9603 23.0467 24.9894 23.0654 24.9957 23.2914C25.0036 23.5737 24.9976 23.8564 24.9976 24.1997Z" fill="url(#paint4_radial)"/>
<path d="M16.6975 5.76369C12.1982 9.90063 10.5878 18.6378 10.5878 18.6378H14.0338C12.3358 11.779 16.9749 6.22987 16.9749 6.22987C17.2246 5.96907 16.9388 5.54167 16.6975 5.76369Z" fill="url(#paint5_radial)"/>
<path d="M8.32033 5.07317C8.32033 5.07317 13.4515 10.4912 13.4515 18.9015H10.3609C10.3609 18.9015 12.5723 13.0034 7.6444 5.6853C7.27493 5.13668 7.90819 4.59364 8.32033 5.07317Z" fill="url(#paint6_radial)"/>
<path d="M20.003 9.19928C19.9773 9.23718 19.9667 9.265 19.9465 9.28086C19.4347 9.68423 18.8903 10.0244 18.2364 10.1469C17.6841 10.2505 17.1793 10.1348 16.7497 9.7734C16.5522 9.60724 16.3918 9.39666 16.2171 9.20387C16.1419 9.1207 16.1487 9.03623 16.2147 8.94361C16.6849 8.28377 17.357 7.90788 18.2332 8.15466C18.5145 8.23386 18.7909 8.35374 19.0455 8.49758C19.331 8.65887 19.5902 8.86701 19.8583 9.05827C19.9118 9.09646 19.9538 9.15067 20.003 9.19928Z" fill="url(#paint7_radial)"/>
<path d="M20.4127 3.77826C20.413 3.83116 20.4211 3.86459 20.4123 3.89283C20.1886 4.61171 19.8924 5.29173 19.3498 5.83595C18.8914 6.29584 18.335 6.51589 17.6896 6.45246C17.3928 6.42326 17.1023 6.32759 16.8099 6.25818C16.6838 6.22818 16.635 6.14337 16.6373 6.01196C16.6537 5.07606 17.0481 4.27852 18.0441 3.94062C18.3637 3.83211 18.7054 3.76541 19.0419 3.73597C19.4193 3.70294 19.8023 3.73166 20.1827 3.73852C20.2586 3.73996 20.3341 3.76406 20.4127 3.77826Z" fill="url(#paint8_radial)"/>
<path d="M15.5156 0.829285C16.0457 1.38574 16.5045 1.97775 16.6217 2.75912C16.7367 3.52549 16.381 4.10081 15.8241 4.58154C15.7166 4.67428 15.6131 4.65984 15.5021 4.59114C14.8612 4.1946 14.4817 3.64597 14.552 2.86694C14.6203 2.11154 14.9746 1.47065 15.4194 0.874123C15.4294 0.860656 15.4532 0.85751 15.5156 0.829285Z" fill="url(#paint9_radial)"/>
<path d="M11.175 4.74926C11.2249 4.33069 11.2667 3.91096 11.3282 3.49417C11.3575 3.2966 11.4176 3.26776 11.5987 3.34679C12.2298 3.62215 12.8307 3.9456 13.3214 4.44421C14.004 5.13775 14.1991 5.95038 13.9263 6.87845C13.8789 7.04006 13.8087 7.19487 13.7512 7.35362C13.688 7.52815 13.5706 7.60176 13.3823 7.57957C12.4881 7.47394 11.7979 7.08035 11.437 6.21607C11.2412 5.74739 11.1939 5.25467 11.175 4.74926Z" fill="url(#paint10_radial)"/>
<path d="M4.57139 2.95296C4.51897 2.49188 4.45744 2.03154 4.418 1.56931C4.39927 1.35027 4.45645 1.30418 4.67048 1.34296C5.41632 1.47827 6.14204 1.67275 6.79397 2.0828C7.70085 2.65324 8.11567 3.4745 8.05824 4.53798C8.0483 4.72308 8.01232 4.90679 7.99096 5.09141C7.96738 5.29434 7.86024 5.40295 7.65279 5.42678C6.6681 5.54 5.82884 5.29286 5.22333 4.45828C4.89494 4.00567 4.71961 3.48962 4.57139 2.95296Z" fill="url(#paint11_radial)"/>
<path d="M2.8645 8.94346C2.88688 8.91519 2.9099 8.87154 2.94535 8.84326C3.46937 8.42533 4.02207 8.05265 4.6557 7.81967C6.04871 7.30751 7.09676 7.75698 7.9186 8.84422C8.06548 9.03857 8.05911 9.08309 7.92649 9.28477C7.2982 10.2402 6.30615 10.6282 5.20537 10.34C4.33383 10.1117 3.60797 9.61827 2.9193 9.06079C2.90473 9.04892 2.89238 9.03228 2.88394 9.01539C2.87565 8.99882 2.87374 8.97915 2.8645 8.94346Z" fill="url(#paint12_radial)"/>
<path d="M4.66162 14.55C4.67747 14.4729 4.67858 14.4297 4.69485 14.3934C4.97398 13.7708 5.30847 13.1852 5.79979 12.6997C6.53326 11.9748 7.38609 11.8042 8.35011 12.1369C8.48601 12.1838 8.61856 12.2425 8.74776 12.3058C8.95367 12.4067 8.98313 12.4556 8.94823 12.6881C8.78699 13.7633 8.20401 14.4498 7.12936 14.6803C6.45334 14.8252 5.77983 14.7622 5.108 14.6467C4.96183 14.6217 4.81777 14.5842 4.66162 14.55Z" fill="url(#paint13_radial)"/>
<defs>
<radialGradient id="paint0_radial" cx="0" cy="0" r="1" gradientUnits="userSpaceOnUse" gradientTransform="translate(12.4999 21.1672) rotate(90) scale(3.03246 12.4999)">
<stop stop-color="#D09466"/>
<stop offset="1" stop-color="#A96110"/>
</radialGradient>
<radialGradient id="paint1_radial" cx="0" cy="0" r="1" gradientUnits="userSpaceOnUse" gradientTransform="translate(13.8295 12.1699) rotate(90) scale(6.46796 3.24187)">
<stop stop-color="#D09466"/>
<stop offset="1" stop-color="#A96110"/>
</radialGradient>
<radialGradient id="paint2_radial" cx="0" cy="0" r="1" gradientUnits="userSpaceOnUse" gradientTransform="translate(10.4922 11.8949) rotate(90) scale(7.00658 2.95928)">
<stop stop-color="#D09466"/>
<stop offset="1" stop-color="#A96110"/>
</radialGradient>
<radialGradient id="paint3_radial" cx="0" cy="0" r="1" gradientUnits="userSpaceOnUse" gradientTransform="translate(17.036 12.8923) rotate(90) scale(1.19634 1.59512)">
<stop stop-color="#D09466"/>
<stop offset="1" stop-color="#A96110"/>
</radialGradient>
<radialGradient id="paint4_radial" cx="0" cy="0" r="1" gradientUnits="userSpaceOnUse" gradientTransform="translate(12.4999 21.1672) rotate(90) scale(3.03246 12.4999)">
<stop stop-color="#D09466"/>
<stop offset="1" stop-color="#A96110"/>
</radialGradient>
<radialGradient id="paint5_radial" cx="0" cy="0" r="1" gradientUnits="userSpaceOnUse" gradientTransform="translate(13.8296 12.1698) rotate(90) scale(6.46796 3.24187)">
<stop stop-color="#D09466"/>
<stop offset="1" stop-color="#A96110"/>
</radialGradient>
<radialGradient id="paint6_radial" cx="0" cy="0" r="1" gradientUnits="userSpaceOnUse" gradientTransform="translate(10.4922 11.8949) rotate(90) scale(7.00658 2.95928)">
<stop stop-color="#D09466"/>
<stop offset="1" stop-color="#A96110"/>
</radialGradient>
<radialGradient id="paint7_radial" cx="0" cy="0" r="1" gradientUnits="userSpaceOnUse" gradientTransform="translate(18.0829 9.13085) rotate(90) scale(1.05242 1.92003)">
<stop stop-color="#D09466"/>
<stop offset="1" stop-color="#A96110"/>
</radialGradient>
<radialGradient id="paint8_radial" cx="0" cy="0" r="1" gradientUnits="userSpaceOnUse" gradientTransform="translate(18.5268 5.09178) rotate(90) scale(1.37138 1.88955)">
<stop stop-color="#D09466"/>
<stop offset="1" stop-color="#A96110"/>
</radialGradient>
<radialGradient id="paint9_radial" cx="0" cy="0" r="1" gradientUnits="userSpaceOnUse" gradientTransform="translate(15.5935 2.73809) rotate(90) scale(1.9088 1.0498)">
<stop stop-color="#D09466"/>
<stop offset="1" stop-color="#A96110"/>
</radialGradient>
<radialGradient id="paint10_radial" cx="0" cy="0" r="1" gradientUnits="userSpaceOnUse" gradientTransform="translate(12.61 5.44469) rotate(90) scale(2.13872 1.43506)">
<stop stop-color="#D09466"/>
<stop offset="1" stop-color="#A96110"/>
</radialGradient>
<radialGradient id="paint11_radial" cx="0" cy="0" r="1" gradientUnits="userSpaceOnUse" gradientTransform="translate(6.23908 3.3916) rotate(90) scale(2.06104 1.8244)">
<stop stop-color="#D09466"/>
<stop offset="1" stop-color="#A96110"/>
</radialGradient>
<radialGradient id="paint12_radial" cx="0" cy="0" r="1" gradientUnits="userSpaceOnUse" gradientTransform="translate(5.44593 9.02085) rotate(90) scale(1.41233 2.58143)">
<stop stop-color="#D09466"/>
<stop offset="1" stop-color="#A96110"/>
</radialGradient>
<radialGradient id="paint13_radial" cx="0" cy="0" r="1" gradientUnits="userSpaceOnUse" gradientTransform="translate(6.81118 13.3691) rotate(90) scale(1.39531 2.14956)">
<stop stop-color="#D09466"/>
<stop offset="1" stop-color="#A96110"/>
</radialGradient>
</defs>
</svg>
