<svg width="24" height="20" viewBox="0 0 24 20" fill="none" xmlns="http://www.w3.org/2000/svg">
<path d="M23.9538 2.32298C23.0688 2.71197 22.1238 2.97697 21.1288 3.09797C22.1428 2.48698 22.9228 1.52399 23.2918 0.374996C22.3408 0.929991 21.2868 1.33399 20.1648 1.55898C19.2688 0.599994 17.9918 0 16.5738 0C13.8569 0 11.6539 2.20298 11.6539 4.91695C11.6539 5.30695 11.6989 5.68194 11.7809 6.04094C7.69092 5.84794 4.06596 3.88396 1.63998 0.914991C1.21299 1.63698 0.97399 2.47598 0.97399 3.38997C0.97399 5.09995 1.84398 6.60293 3.16197 7.48593C2.35498 7.45993 1.59598 7.23793 0.933991 6.86993V6.93093C0.933991 9.31591 2.62697 11.3049 4.87995 11.7579C4.46696 11.8689 4.03096 11.9289 3.58396 11.9289C3.26997 11.9289 2.96897 11.8989 2.66797 11.8429C3.29897 13.7959 5.11295 15.2198 7.27193 15.2598C5.59194 16.5788 3.46297 17.3648 1.16999 17.3648C0.779992 17.3648 0.390996 17.3418 0 17.2978C2.18898 18.6918 4.76795 19.5068 7.55692 19.5068C16.6108 19.5068 21.5558 12.0109 21.5558 5.52095C21.5558 5.31195 21.5558 5.10095 21.5408 4.89095C22.5018 4.20196 23.3408 3.33097 24.0008 2.34298L23.9538 2.32298Z" fill="#D09466"/>
</svg>
